ffmpeg started on 2016-12-10 at 00:02:00
Report written to "Output/x264/results/ffmpeg/crowd_run_2160p50placebo12000k.log"
Command line:
Tools/ffmpeg/ffmpeg -benchmark -y -i Input/y4m/crowd_run_2160p50.y4m -c:v libx264 -preset placebo -b:v 12000k -an Output/x264/encoded/crowd_run_2160p50placebo12000k.mkv
ffmpeg version N-82227-gdb23fde Copyright (c) 2000-2016 the FFmpeg developers
  built with gcc 5.4.0 (Ubuntu 5.4.0-6ubuntu1~16.04.2) 20160609
  configuration: --prefix=/home/jaroslav/ffmpeg_build --pkg-config-flags=--static --extra-cflags=-I/home/jaroslav/ffmpeg_build/include --extra-ldflags=-L/home/jaroslav/ffmpeg_build/lib --bindir=/home/jaroslav/bin --enable-gpl --enable-libass --enable-libfdk-aac --enable-libfreetype --enable-libmp3lame --enable-libopus --enable-libtheora --enable-libvorbis --enable-libvpx --enable-libx264 --enable-libx265 --enable-nvenc --enable-libmfx --enable-libxvid --enable-libgsm --enable-libopencore-amrnb --enable-version3 --enable-nonfree
  libavutil      55. 35.100 / 55. 35.100
  libavcodec     57. 66.101 / 57. 66.101
  libavformat    57. 57.100 / 57. 57.100
  libavdevice    57.  2.100 / 57.  2.100
  libavfilter     6. 66.100 /  6. 66.100
  libswscale      4.  3.100 /  4.  3.100
  libswresample   2.  4.100 /  2.  4.100
  libpostproc    54.  2.100 / 54.  2.100
Input #0, yuv4mpegpipe, from 'Input/y4m/crowd_run_2160p50.y4m':
  Duration: 00:00:10.00, start: 0.000000, bitrate: 4976642 kb/s
    Stream #0:0: Video: rawvideo (I420 / 0x30323449), yuv420p(progressive), 3840x2160, SAR 1:1 DAR 16:9, 50 fps, 50 tbr, 50 tbn, 50 tbc
[libx264 @ 0x32bd1c0] using SAR=1/1
[libx264 @ 0x32bd1c0] DPB size (16 frames, 518400 mbs) > level limit (5 frames, 184320 mbs)
[libx264 @ 0x32bd1c0] using cpu capabilities: MMX2 SSE2Fast SSSE3 SSE4.2 AVX FMA3 AVX2 LZCNT BMI2
[libx264 @ 0x32bd1c0] profile High, level 5.2
[libx264 @ 0x32bd1c0] 264 - core 148 - H.264/MPEG-4 AVC codec - Copyleft 2003-2016 - http://www.videolan.org/x264.html - options: cabac=1 ref=16 deblock=1:0:0 analyse=0x3:0x133 me=tesa subme=11 psy=1 psy_rd=1.00:0.00 mixed_ref=1 me_range=24 chroma_me=1 trellis=2 8x8dct=1 cqm=0 deadzone=21,11 fast_pskip=0 chroma_qp_offset=-2 threads=6 lookahead_threads=1 sliced_threads=0 nr=0 decimate=1 interlaced=0 bluray_compat=0 constrained_intra=0 bframes=16 b_pyramid=2 b_adapt=2 b_bias=0 direct=3 weightb=1 open_gop=0 weightp=2 keyint=250 keyint_min=25 scenecut=40 intra_refresh=0 rc_lookahead=60 rc=abr mbtree=1 bitrate=12000 ratetol=1.0 qcomp=0.60 qpmin=0 qpmax=69 qpstep=4 ip_ratio=1.40 aq=1:1.00
Output #0, matroska, to 'Output/x264/encoded/crowd_run_2160p50placebo12000k.mkv':
  Metadata:
    encoder         : Lavf57.57.100
    Stream #0:0: Video: h264 (libx264) (H264 / 0x34363248), yuv420p, 3840x2160 [SAR 1:1 DAR 16:9], q=-1--1, 12000 kb/s, 50 fps, 1k tbn, 50 tbc
    Metadata:
      encoder         : Lavc57.66.101 libx264
    Side data:
      cpb: bitrate max/min/avg: 0/0/12000000 buffer size: 0 vbv_delay: -1
Stream mapping:
  Stream #0:0 -> #0:0 (rawvideo (native) -> h264 (libx264))
Press [q] to stop, [?] for help
frame=   18 fps=0.0 q=0.0 size=       0kB time=00:00:00.00 bitrate=N/A speed=   0x    frame=   32 fps= 31 q=0.0 size=       0kB time=00:00:00.00 bitrate=N/A speed=   0x    frame=   37 fps= 24 q=0.0 size=       0kB time=00:00:00.00 bitrate=N/A speed=   0x    frame=   47 fps= 22 q=0.0 size=       0kB time=00:00:00.00 bitrate=N/A speed=   0x    frame=   54 fps= 20 q=0.0 size=       0kB time=00:00:00.00 bitrate=N/A speed=   0x    frame=   61 fps= 19 q=0.0 size=       0kB time=00:00:00.00 bitrate=N/A speed=   0x    frame=   68 fps= 18 q=0.0 size=       0kB time=00:00:00.00 bitrate=N/A speed=   0x    frame=   72 fps= 17 q=0.0 size=       0kB time=00:00:00.00 bitrate=N/A speed=   0x    frame=   79 fps= 16 q=0.0 size=       0kB time=00:00:00.00 bitrate=N/A speed=   0x    frame=   83 fps= 15 q=0.0 size=       0kB time=00:00:00.00 bitrate=N/A speed=   0x    frame=   84 fps=3.3 q=0.0 size=       0kB time=00:00:00.00 bitrate=N/A speed=   0x    frame=   89 fps=3.1 q=40.0 size=       1kB time=-00:00:00.01 bitrate=N/A speed=N/A    frame=   90 fps=2.5 q=36.0 size=       1kB time=00:00:00.00 bitrate=5888.0kbits/s speed=2.82e-05x    frame=   91 fps=2.5 q=34.0 size=       1kB time=00:00:00.02 bitrate= 280.4kbits/s speed=0.000577x    frame=   92 fps=2.5 q=37.0 size=       1kB time=00:00:00.04 bitrate= 143.6kbits/s speed=0.0011x    frame=   95 fps=2.3 q=44.0 size=       1kB time=00:00:00.10 bitrate=  58.3kbits/s speed=0.0024x    frame=   96 fps=2.1 q=42.0 size=       1kB time=00:00:00.12 bitrate=  48.7kbits/s speed=0.00263x    frame=   97 fps=2.1 q=45.0 size=       1kB time=00:00:00.14 bitrate=  41.8kbits/s speed=0.003x    frame=  100 fps=2.1 q=49.0 size=       1kB time=00:00:00.20 bitrate=  29.3kbits/s speed=0.00419x    frame=  101 fps=2.0 q=49.0 size=       1kB time=00:00:00.22 bitrate=  26.6kbits/s speed=0.00442x    frame=  102 fps=1.9 q=49.0 size=       1kB time=00:00:00.24 bitrate=  24.4kbits/s speed=0.00447x    frame=  103 fps=1.9 q=49.0 size=       1kB time=00:00:00.26 bitrate=  22.6kbits/s speed=0.00476x    frame=  105 fps=1.8 q=48.0 size=       1kB time=00:00:00.30 bitrate=  19.6kbits/s speed=0.00509x    frame=  106 fps=1.8 q=48.0 size=       1kB time=00:00:00.32 bitrate=  18.3kbits/s speed=0.00533x    frame=  107 fps=1.7 q=49.0 size=       1kB time=00:00:00.34 bitrate=  17.3kbits/s speed=0.00557x    frame=  109 fps=1.8 q=48.0 size=       1kB time=00:00:00.38 bitrate=  15.5kbits/s speed=0.00617x    frame=  110 fps=1.8 q=48.0 size=       1kB time=00:00:00.40 bitrate=  14.7kbits/s speed=0.00643x    frame=  111 fps=1.5 q=48.0 size=       1kB time=00:00:00.42 bitrate=  14.0kbits/s speed=0.00586x    frame=  112 fps=1.5 q=48.0 size=       1kB time=00:00:00.44 bitrate=  13.4kbits/s speed=0.00603x    frame=  113 fps=1.5 q=47.0 size=       1kB time=00:00:00.46 bitrate=  12.8kbits/s speed=0.00623x    frame=  115 fps=1.5 q=47.0 size=       1kB time=00:00:00.50 bitrate=  11.8kbits/s speed=0.00636x    frame=  116 fps=1.4 q=47.0 size=       1kB time=00:00:00.52 bitrate=  11.3kbits/s speed=0.00648x    frame=  117 fps=1.4 q=47.0 size=       1kB time=00:00:00.54 bitrate=  10.9kbits/s speed=0.00665x    frame=  119 fps=1.3 q=47.0 size=       1kB time=00:00:00.58 bitrate=  10.1kbits/s speed=0.00646x    frame=  120 fps=1.3 q=47.0 size=       1kB time=00:00:00.60 bitrate=   9.8kbits/s speed=0.00659x    frame=  121 fps=1.3 q=47.0 size=       1kB time=00:00:00.62 bitrate=   9.5kbits/s speed=0.00667x    frame=  123 fps=1.2 q=47.0 size=       1kB time=00:00:00.66 bitrate=   8.9kbits/s speed=0.00663x    frame=  124 fps=1.2 q=47.0 size=       1kB time=00:00:00.68 bitrate=   8.6kbits/s speed=0.00676x    frame=  125 fps=1.2 q=47.0 size=       1kB time=00:00:00.70 bitrate=   8.4kbits/s speed=0.00685x    frame=  127 fps=1.1 q=47.0 size=       1kB time=00:00:00.74 bitrate=   7.9kbits/s speed=0.00653x    frame=  128 fps=1.1 q=47.0 size=       1kB time=00:00:00.76 bitrate=   7.7kbits/s speed=0.00661x    frame=  129 fps=1.1 q=47.0 size=       1kB time=00:00:00.78 bitrate=   7.5kbits/s speed=0.00668x    frame=  132 fps=1.1 q=47.0 size=       1kB time=00:00:00.84 bitrate=   7.0kbits/s speed=0.00681x    frame=  133 fps=1.0 q=47.0 size=       1kB time=00:00:00.86 bitrate=   6.8kbits/s speed=0.00679x    frame=  134 fps=1.0 q=47.0 size=       1kB time=00:00:00.88 bitrate=   6.7kbits/s speed=0.00686x    frame=  135 fps=1.0 q=47.0 size=       1kB time=00:00:00.90 bitrate=   6.5kbits/s speed=0.00698x    frame=  137 fps=1.0 q=46.0 size=       1kB time=00:00:00.94 bitrate=   6.3kbits/s speed=0.00671x    frame=  138 fps=1.0 q=46.0 size=       1kB time=00:00:00.96 bitrate=   6.1kbits/s speed=0.00676x    frame=  139 fps=1.0 q=46.0 size=       1kB time=00:00:00.98 bitrate=   6.0kbits/s speed=0.00683x    frame=  141 fps=1.0 q=46.0 size=       1kB time=00:00:01.02 bitrate=   5.8kbits/s speed=0.00709x    frame=  142 fps=0.9 q=46.0 size=       1kB time=00:00:01.04 bitrate=   5.7kbits/s speed=0.00691x    frame=  143 fps=0.9 q=46.0 size=       1kB time=00:00:01.06 bitrate=   5.5kbits/s speed=0.00684x    frame=  144 fps=0.9 q=46.0 size=       1kB time=00:00:01.08 bitrate=   5.4kbits/s speed=0.00692x    frame=  147 fps=0.9 q=46.0 size=       1kB time=00:00:01.14 bitrate=   5.2kbits/s speed=0.00688x    frame=  148 fps=0.9 q=46.0 size=       1kB time=00:00:01.16 bitrate=   5.1kbits/s speed=0.00695x    frame=  149 fps=0.9 q=46.0 size=       1kB time=00:00:01.18 bitrate=   5.0kbits/s speed=0.00702x    frame=  151 fps=0.9 q=46.0 size=       1kB time=00:00:01.22 bitrate=   4.8kbits/s speed=0.00692x    frame=  152 fps=0.9 q=46.0 size=       1kB time=00:00:01.24 bitrate=   4.7kbits/s speed=0.00695x    frame=  153 fps=0.8 q=46.0 size=       1kB time=00:00:01.26 bitrate=   4.7kbits/s speed=0.007x    frame=  156 fps=0.8 q=46.0 size=       1kB time=00:00:01.32 bitrate=   4.5kbits/s speed=0.00699x    frame=  157 fps=0.8 q=46.0 size=       1kB time=00:00:01.34 bitrate=   4.4kbits/s speed=0.00702x    frame=  158 fps=0.8 q=46.0 size=       1kB time=00:00:01.36 bitrate=   4.3kbits/s speed=0.00707x    frame=  160 fps=0.8 q=45.0 size=       1kB time=00:00:01.40 bitrate=   4.2kbits/s speed=0.00698x    frame=  161 fps=0.8 q=46.0 size=       1kB time=00:00:01.42 bitrate=   4.1kbits/s speed=0.007x    frame=  162 fps=0.8 q=45.0 size=       1kB time=00:00:01.44 bitrate=   4.1kbits/s speed=0.00704x    frame=  165 fps=0.8 q=45.0 size=       1kB time=00:00:01.50 bitrate=   3.9kbits/s speed=0.00701x    frame=  166 fps=0.8 q=45.0 size=       1kB time=00:00:01.52 bitrate=   3.9kbits/s speed=0.00706x    frame=  167 fps=0.8 q=45.0 size=       1kB time=00:00:01.54 bitrate=   3.8kbits/s speed=0.0071x    frame=  169 fps=0.7 q=45.0 size=       1kB time=00:00:01.58 bitrate=   3.7kbits/s speed=0.00701x    frame=  170 fps=0.7 q=45.0 size=       1kB time=00:00:01.60 bitrate=   3.7kbits/s speed=0.00705x    frame=  171 fps=0.7 q=45.0 size=       1kB time=00:00:01.62 bitrate=   3.6kbits/s speed=0.00708x    frame=  174 fps=0.7 q=45.0 size=       1kB time=00:00:01.68 bitrate=   3.5kbits/s speed=0.007x    frame=  175 fps=0.7 q=45.0 size=       1kB time=00:00:01.70 bitrate=   3.5kbits/s speed=0.00704x    frame=  176 fps=0.7 q=45.0 size=       1kB time=00:00:01.72 bitrate=   3.4kbits/s speed=0.00707x    frame=  179 fps=0.7 q=45.0 size=       1kB time=00:00:01.78 bitrate=   3.3kbits/s speed=0.0071x    frame=  180 fps=0.7 q=45.0 size=       1kB time=00:00:01.80 bitrate=   3.3kbits/s speed=0.00712x    frame=  181 fps=0.7 q=45.0 size=       1kB time=00:00:01.82 bitrate=   3.2kbits/s speed=0.00717x    frame=  183 fps=0.7 q=45.0 size=       1kB time=00:00:01.86 bitrate=   3.2kbits/s speed=0.00702x    frame=  184 fps=0.7 q=45.0 size=       1kB time=00:00:01.88 bitrate=   3.1kbits/s speed=0.00706x    frame=  185 fps=0.7 q=45.0 size=       1kB time=00:00:01.90 bitrate=   3.1kbits/s speed=0.0071x    frame=  187 fps=0.7 q=45.0 size=       1kB time=00:00:01.94 bitrate=   3.0kbits/s speed=0.00703x    frame=  188 fps=0.7 q=45.0 size=       1kB time=00:00:01.96 bitrate=   3.0kbits/s speed=0.00706x    frame=  189 fps=0.7 q=45.0 size=       1kB time=00:00:01.98 bitrate=   3.0kbits/s speed=0.0071x    frame=  193 fps=0.7 q=45.0 size=       1kB time=00:00:02.06 bitrate=   2.9kbits/s speed=0.00699x    frame=  194 fps=0.7 q=45.0 size=       1kB time=00:00:02.08 bitrate=   2.8kbits/s speed=0.00702x    frame=  195 fps=0.7 q=45.0 size=       1kB time=00:00:02.10 bitrate=   2.8kbits/s speed=0.00705x    frame=  198 fps=0.7 q=45.0 size=       1kB time=00:00:02.16 bitrate=   2.7kbits/s speed=0.00715x    frame=  199 fps=0.6 q=45.0 size=       1kB time=00:00:02.18 bitrate=   2.7kbits/s speed=0.00705x    frame=  200 fps=0.6 q=45.0 size=       1kB time=00:00:02.20 bitrate=   2.7kbits/s speed=0.00708x    frame=  204 fps=0.6 q=45.0 size=       1kB time=00:00:02.28 bitrate=   2.6kbits/s speed=0.00707x    frame=  205 fps=0.6 q=45.0 size=       1kB time=00:00:02.30 bitrate=   2.6kbits/s speed=0.00709x    frame=  206 fps=0.6 q=45.0 size=       1kB time=00:00:02.32 bitrate=   2.5kbits/s speed=0.00713x    frame=  208 fps=0.6 q=45.0 size=       1kB time=00:00:02.36 bitrate=   2.5kbits/s speed=0.00706x    frame=  209 fps=0.6 q=45.0 size=       1kB time=00:00:02.38 bitrate=   2.5kbits/s speed=0.00709x    frame=  210 fps=0.6 q=45.0 size=       1kB time=00:00:02.40 bitrate=   2.5kbits/s speed=0.00713x    frame=  211 fps=0.6 q=45.0 size=       1kB time=00:00:02.42 bitrate=   2.4kbits/s speed=0.00717x    frame=  214 fps=0.6 q=44.0 size=       1kB time=00:00:02.48 bitrate=   2.4kbits/s speed=0.00703x    frame=  215 fps=0.6 q=45.0 size=       1kB time=00:00:02.50 bitrate=   2.4kbits/s speed=0.00706x    frame=  216 fps=0.6 q=44.0 size=       1kB time=00:00:02.52 bitrate=   2.3kbits/s speed=0.00708x    frame=  219 fps=0.6 q=44.0 size=       1kB time=00:00:02.58 bitrate=   2.3kbits/s speed=0.00717x    frame=  220 fps=0.6 q=44.0 size=       1kB time=00:00:02.60 bitrate=   2.3kbits/s speed=0.00707x    frame=  221 fps=0.6 q=44.0 size=       1kB time=00:00:02.62 bitrate=   2.2kbits/s speed=0.0071x    frame=  225 fps=0.6 q=44.0 size=       1kB time=00:00:02.70 bitrate=   2.2kbits/s speed=0.00709x    frame=  226 fps=0.6 q=44.0 size=       1kB time=00:00:02.72 bitrate=   2.2kbits/s speed=0.00712x    frame=  227 fps=0.6 q=44.0 size=       1kB time=00:00:02.74 bitrate=   2.1kbits/s speed=0.00715x    frame=  229 fps=0.6 q=44.0 size=       1kB time=00:00:02.78 bitrate=   2.1kbits/s speed=0.00705x    frame=  230 fps=0.6 q=44.0 size=       1kB time=00:00:02.80 bitrate=   2.1kbits/s speed=0.00708x    frame=  231 fps=0.6 q=44.0 size=       1kB time=00:00:02.82 bitrate=   2.1kbits/s speed=0.0071x    frame=  234 fps=0.6 q=44.0 size=       1kB time=00:00:02.88 bitrate=   2.0kbits/s speed=0.00707x    frame=  235 fps=0.6 q=44.0 size=       1kB time=00:00:02.90 bitrate=   2.0kbits/s speed=0.0071x    frame=  236 fps=0.6 q=44.0 size=       1kB time=00:00:02.92 bitrate=   2.0kbits/s speed=0.00712x    frame=  238 fps=0.6 q=44.0 size=       1kB time=00:00:02.96 bitrate=   2.0kbits/s speed=0.00704x    frame=  239 fps=0.6 q=44.0 size=       1kB time=00:00:02.98 bitrate=   2.0kbits/s speed=0.00705x    frame=  240 fps=0.6 q=44.0 size=       1kB time=00:00:03.00 bitrate=   2.0kbits/s speed=0.00707x    frame=  244 fps=0.6 q=44.0 size=       1kB time=00:00:03.08 bitrate=   1.9kbits/s speed=0.00698x    frame=  245 fps=0.6 q=44.0 size=       1kB time=00:00:03.10 bitrate=   1.9kbits/s speed=0.00701x    frame=  246 fps=0.6 q=44.0 size=       1kB time=00:00:03.12 bitrate=   1.9kbits/s speed=0.00703x    frame=  250 fps=0.5 q=44.0 size=       1kB time=00:00:03.20 bitrate=   1.8kbits/s speed=0.00695x    frame=  251 fps=0.5 q=44.0 size=       1kB time=00:00:03.22 bitrate=   1.8kbits/s speed=0.00697x    frame=  252 fps=0.5 q=44.0 size=       1kB time=00:00:03.24 bitrate=   1.8kbits/s speed=0.007x    frame=  255 fps=0.5 q=44.0 size=    5160kB time=00:00:03.30 bitrate=12805.2kbits/s speed=0.00705x    frame=  256 fps=0.5 q=44.0 size=    5160kB time=00:00:03.32 bitrate=12728.1kbits/s speed=0.00695x    frame=  257 fps=0.5 q=44.0 size=    5160kB time=00:00:03.34 bitrate=12651.9kbits/s speed=0.00698x    frame=  261 fps=0.5 q=44.0 size=    5160kB time=00:00:03.42 bitrate=12356.0kbits/s speed=0.00698x    frame=  262 fps=0.5 q=44.0 size=    5160kB time=00:00:03.44 bitrate=12284.2kbits/s speed=0.00699x    frame=  263 fps=0.5 q=44.0 size=    5160kB time=00:00:03.46 bitrate=12213.2kbits/s speed=0.007x    frame=  266 fps=0.5 q=44.0 size=    5160kB time=00:00:03.52 bitrate=12005.1kbits/s speed=0.00696x    frame=  267 fps=0.5 q=44.0 size=    5160kB time=00:00:03.54 bitrate=11937.3kbits/s speed=0.00698x    frame=  268 fps=0.5 q=44.0 size=    5160kB time=00:00:03.56 bitrate=11870.3kbits/s speed=0.00699x    frame=  271 fps=0.5 q=44.0 size=    5160kB time=00:00:03.62 bitrate=11673.6kbits/s speed=0.00697x    frame=  272 fps=0.5 q=44.0 size=    5160kB time=00:00:03.64 bitrate=11609.5kbits/s speed=0.00698x    frame=  273 fps=0.5 q=44.0 size=    5160kB time=00:00:03.66 bitrate=11546.0kbits/s speed=0.007x    frame=  276 fps=0.5 q=44.0 size=    5160kB time=00:00:03.72 bitrate=11359.9kbits/s speed=0.00698x    frame=  277 fps=0.5 q=44.0 size=    5160kB time=00:00:03.74 bitrate=11299.1kbits/s speed=0.00699x    frame=  278 fps=0.5 q=44.0 size=    5160kB time=00:00:03.76 bitrate=11239.0kbits/s speed=0.007x    frame=  280 fps=0.5 q=44.0 size=    5160kB time=00:00:03.80 bitrate=11120.8kbits/s speed=0.00696x    frame=  281 fps=0.5 q=44.0 size=    5160kB time=00:00:03.82 bitrate=11062.6kbits/s speed=0.00697x    frame=  282 fps=0.5 q=44.0 size=    5160kB time=00:00:03.84 bitrate=11004.9kbits/s speed=0.00699x    frame=  285 fps=0.5 q=44.0 size=    5160kB time=00:00:03.90 bitrate=10835.7kbits/s speed=0.00694x    frame=  286 fps=0.5 q=44.0 size=    5160kB time=00:00:03.92 bitrate=10780.4kbits/s speed=0.00695x    frame=  287 fps=0.5 q=44.0 size=    5160kB time=00:00:03.94 bitrate=10725.7kbits/s speed=0.00696x    frame=  290 fps=0.5 q=44.0 size=    5160kB time=00:00:04.00 bitrate=10564.9kbits/s speed=0.00697x    frame=  291 fps=0.5 q=44.0 size=    5160kB time=00:00:04.02 bitrate=10512.3kbits/s speed=0.00698x    frame=  292 fps=0.5 q=44.0 size=    5160kB time=00:00:04.04 bitrate=10460.3kbits/s speed=0.00699x    frame=  294 fps=0.5 q=44.0 size=    5160kB time=00:00:04.08 bitrate=10357.8kbits/s speed=0.00692x    frame=  295 fps=0.5 q=44.0 size=    5160kB time=00:00:04.10 bitrate=10307.2kbits/s speed=0.00694x    frame=  296 fps=0.5 q=44.0 size=    5160kB time=00:00:04.12 bitrate=10257.2kbits/s speed=0.00695x    frame=  299 fps=0.5 q=44.0 size=    5160kB time=00:00:04.18 bitrate=10110.0kbits/s speed=0.00693x    frame=  300 fps=0.5 q=44.0 size=    5160kB time=00:00:04.20 bitrate=10061.9kbits/s speed=0.00694x    frame=  301 fps=0.5 q=44.0 size=    5160kB time=00:00:04.22 bitrate=10014.2kbits/s speed=0.00696x    frame=  304 fps=0.5 q=44.0 size=    5160kB time=00:00:04.28 bitrate=9873.9kbits/s speed=0.00693x    frame=  305 fps=0.5 q=44.0 size=    5160kB time=00:00:04.30 bitrate=9827.9kbits/s speed=0.00695x    frame=  306 fps=0.5 q=44.0 size=    5160kB time=00:00:04.32 bitrate=9782.5kbits/s speed=0.00697x    frame=  308 fps=0.5 q=44.0 size=    5160kB time=00:00:04.36 bitrate=9692.7kbits/s speed=0.00691x    frame=  309 fps=0.5 q=44.0 size=    5160kB time=00:00:04.38 bitrate=9648.5kbits/s speed=0.00692x    frame=  310 fps=0.5 q=44.0 size=    5160kB time=00:00:04.40 bitrate=9604.6kbits/s speed=0.00694x    frame=  313 fps=0.5 q=44.0 size=    5160kB time=00:00:04.46 bitrate=9475.5kbits/s speed=0.0069x    frame=  314 fps=0.5 q=44.0 size=    5160kB time=00:00:04.48 bitrate=9433.2kbits/s speed=0.00692x    frame=  315 fps=0.5 q=44.0 size=    5160kB time=00:00:04.50 bitrate=9391.2kbits/s speed=0.00693x    frame=  318 fps=0.5 q=44.0 size=    5160kB time=00:00:04.56 bitrate=9267.7kbits/s speed=0.00689x    frame=  319 fps=0.5 q=44.0 size=    5160kB time=00:00:04.58 bitrate=9227.2kbits/s speed=0.0069x    frame=  320 fps=0.5 q=44.0 size=    5160kB time=00:00:04.60 bitrate=9187.1kbits/s speed=0.00691x    frame=  323 fps=0.5 q=44.0 size=    5160kB time=00:00:04.66 bitrate=9068.9kbits/s speed=0.00688x    frame=  324 fps=0.5 q=44.0 size=    5160kB time=00:00:04.68 bitrate=9030.1kbits/s speed=0.0069x    frame=  325 fps=0.5 q=44.0 size=    5160kB time=00:00:04.70 bitrate=8991.7kbits/s speed=0.00691x    frame=  328 fps=0.5 q=44.0 size=    5160kB time=00:00:04.76 bitrate=8878.4kbits/s speed=0.00687x    frame=  329 fps=0.5 q=44.0 size=    5160kB time=00:00:04.78 bitrate=8841.2kbits/s speed=0.00688x    frame=  330 fps=0.5 q=44.0 size=    5160kB time=00:00:04.80 bitrate=8804.4kbits/s speed=0.0069x    frame=  332 fps=0.5 q=44.0 size=    5160kB time=00:00:04.84 bitrate=8731.7kbits/s speed=0.00695x    frame=  333 fps=0.5 q=41.0 size=    5160kB time=00:00:04.86 bitrate=8695.7kbits/s speed=0.00687x    frame=  334 fps=0.5 q=44.0 size=    5160kB time=00:00:04.88 bitrate=8660.1kbits/s speed=0.00689x    frame=  335 fps=0.5 q=44.0 size=    5160kB time=00:00:04.90 bitrate=8624.8kbits/s speed=0.0069x    frame=  336 fps=0.5 q=44.0 size=    5160kB time=00:00:04.92 bitrate=8589.7kbits/s speed=0.00692x    frame=  338 fps=0.5 q=44.0 size=    7433kB time=00:00:04.96 bitrate=12273.6kbits/s speed=0.00695x    frame=  344 fps=0.5 q=44.0 size=    7433kB time=00:00:05.08 bitrate=11983.7kbits/s speed=0.00706x    frame=  345 fps=0.5 q=44.0 size=    7433kB time=00:00:05.10 bitrate=11936.7kbits/s speed=0.00708x    frame=  346 fps=0.5 q=44.0 size=    7433kB time=00:00:05.12 bitrate=11890.1kbits/s speed=0.0071x    frame=  349 fps=0.5 q=44.0 size=    7433kB time=00:00:05.18 bitrate=11752.4kbits/s speed=0.00716x    frame=  350 fps=0.5 q=44.0 size=    7433kB time=00:00:05.20 bitrate=11707.2kbits/s speed=0.00715x    frame=  351 fps=0.5 q=44.0 size=    7433kB time=00:00:05.22 bitrate=11662.4kbits/s speed=0.00717x    frame=  352 fps=0.5 q=44.0 size=    7433kB time=00:00:05.24 bitrate=11617.9kbits/s speed=0.00719x    frame=  354 fps=0.5 q=44.0 size=    7433kB time=00:00:05.28 bitrate=11529.9kbits/s speed=0.00719x    frame=  355 fps=0.5 q=44.0 size=    7433kB time=00:00:05.30 bitrate=11486.4kbits/s speed=0.00721x    frame=  356 fps=0.5 q=44.0 size=    7433kB time=00:00:05.32 bitrate=11443.2kbits/s speed=0.00723x    frame=  358 fps=0.5 q=44.0 size=    7433kB time=00:00:05.36 bitrate=11357.8kbits/s speed=0.00721x    frame=  359 fps=0.5 q=44.0 size=    7433kB time=00:00:05.38 bitrate=11315.6kbits/s speed=0.00723x    frame=  360 fps=0.5 q=44.0 size=    7433kB time=00:00:05.40 bitrate=11273.7kbits/s speed=0.00724x    frame=  362 fps=0.5 q=44.0 size=    7433kB time=00:00:05.44 bitrate=11190.8kbits/s speed=0.00729x    frame=  363 fps=0.5 q=44.0 size=    7433kB time=00:00:05.46 bitrate=11149.8kbits/s speed=0.00723x    frame=  364 fps=0.5 q=44.0 size=    7433kB time=00:00:05.48 bitrate=11109.2kbits/s speed=0.00724x    frame=  365 fps=0.5 q=44.0 size=    7433kB time=00:00:05.50 bitrate=11068.8kbits/s speed=0.00725x    frame=  367 fps=0.5 q=44.0 size=    7433kB time=00:00:05.54 bitrate=10988.9kbits/s speed=0.0073x    frame=  368 fps=0.5 q=44.0 size=    7433kB time=00:00:05.56 bitrate=10949.3kbits/s speed=0.00723x    frame=  369 fps=0.5 q=44.0 size=    7433kB time=00:00:05.58 bitrate=10910.1kbits/s speed=0.00724x    frame=  370 fps=0.5 q=44.0 size=    7433kB time=00:00:05.60 bitrate=10871.1kbits/s speed=0.00724x    frame=  373 fps=0.5 q=44.0 size=    7433kB time=00:00:05.66 bitrate=10755.9kbits/s speed=0.00721x    frame=  374 fps=0.5 q=44.0 size=    7433kB time=00:00:05.68 bitrate=10718.1kbits/s speed=0.00722x    frame=  375 fps=0.5 q=44.0 size=    7433kB time=00:00:05.70 bitrate=10680.5kbits/s speed=0.00723x    frame=  378 fps=0.5 q=44.0 size=    7433kB time=00:00:05.76 bitrate=10569.2kbits/s speed=0.00723x    frame=  379 fps=0.5 q=44.0 size=    7433kB time=00:00:05.78 bitrate=10532.7kbits/s speed=0.00724x    frame=  380 fps=0.5 q=44.0 size=    7433kB time=00:00:05.80 bitrate=10496.3kbits/s speed=0.00725x    frame=  382 fps=0.5 q=44.0 size=    7433kB time=00:00:05.84 bitrate=10424.5kbits/s speed=0.00718x    frame=  383 fps=0.5 q=44.0 size=    7433kB time=00:00:05.86 bitrate=10388.9kbits/s speed=0.00719x    frame=  384 fps=0.5 q=44.0 size=    7433kB time=00:00:05.88 bitrate=10353.6kbits/s speed=0.0072x    frame=  387 fps=0.5 q=44.0 size=    7433kB time=00:00:05.94 bitrate=10249.0kbits/s speed=0.00722x    frame=  388 fps=0.5 q=44.0 size=    7433kB time=00:00:05.96 bitrate=10214.6kbits/s speed=0.00721x    frame=  389 fps=0.5 q=44.0 size=    7433kB time=00:00:05.98 bitrate=10180.5kbits/s speed=0.00722x    frame=  391 fps=0.5 q=44.0 size=    7433kB time=00:00:06.02 bitrate=10112.8kbits/s speed=0.00717x    frame=  392 fps=0.5 q=44.0 size=    7433kB time=00:00:06.04 bitrate=10079.3kbits/s speed=0.00717x    frame=  393 fps=0.5 q=44.0 size=    7433kB time=00:00:06.06 bitrate=10046.1kbits/s speed=0.00719x    frame=  396 fps=0.5 q=44.0 size=    7433kB time=00:00:06.12 bitrate=9947.6kbits/s speed=0.00719x    frame=  397 fps=0.5 q=44.0 size=    7433kB time=00:00:06.14 bitrate=9915.2kbits/s speed=0.00717x    frame=  398 fps=0.5 q=44.0 size=    7433kB time=00:00:06.16 bitrate=9883.0kbits/s speed=0.00718x    frame=  402 fps=0.5 q=44.0 size=    7433kB time=00:00:06.24 bitrate=9756.3kbits/s speed=0.00714x    frame=  403 fps=0.5 q=44.0 size=    7433kB time=00:00:06.26 bitrate=9725.2kbits/s speed=0.00715x    frame=  404 fps=0.5 q=44.0 size=    7433kB time=00:00:06.28 bitrate=9694.2kbits/s speed=0.00716x    frame=  407 fps=0.5 q=44.0 size=    7433kB time=00:00:06.34 bitrate=9602.5kbits/s speed=0.00719x    frame=  408 fps=0.5 q=44.0 size=    7433kB time=00:00:06.36 bitrate=9572.3kbits/s speed=0.00715x    frame=  409 fps=0.5 q=44.0 size=    7433kB time=00:00:06.38 bitrate=9542.3kbits/s speed=0.00716x    frame=  412 fps=0.5 q=44.0 size=    7433kB time=00:00:06.44 bitrate=9453.4kbits/s speed=0.00713x    frame=  413 fps=0.5 q=44.0 size=    7433kB time=00:00:06.46 bitrate=9424.1kbits/s speed=0.00714x    frame=  414 fps=0.5 q=44.0 size=    7433kB time=00:00:06.48 bitrate=9395.0kbits/s speed=0.00715x    frame=  416 fps=0.5 q=44.0 size=    7433kB time=00:00:06.52 bitrate=9337.4kbits/s speed=0.00719x    frame=  417 fps=0.5 q=44.0 size=    7433kB time=00:00:06.54 bitrate=9308.9kbits/s speed=0.00715x    frame=  418 fps=0.5 q=44.0 size=    7433kB time=00:00:06.56 bitrate=9280.5kbits/s speed=0.00714x    frame=  419 fps=0.5 q=44.0 size=    7433kB time=00:00:06.58 bitrate=9252.3kbits/s speed=0.00715x    frame=  421 fps=0.5 q=44.0 size=    7433kB time=00:00:06.62 bitrate=9196.4kbits/s speed=0.00711x    frame=  422 fps=0.5 q=44.0 size=    7433kB time=00:00:06.64 bitrate=9168.7kbits/s speed=0.00712x    frame=  423 fps=0.5 q=44.0 size=    7433kB time=00:00:06.66 bitrate=9141.2kbits/s speed=0.00713x    frame=  426 fps=0.5 q=44.0 size=    7433kB time=00:00:06.72 bitrate=9059.6kbits/s speed=0.00713x    frame=  427 fps=0.5 q=44.0 size=    7433kB time=00:00:06.74 bitrate=9032.7kbits/s speed=0.00712x    frame=  428 fps=0.5 q=44.0 size=    7433kB time=00:00:06.76 bitrate=9006.0kbits/s speed=0.00713x    frame=  430 fps=0.4 q=44.0 size=    7433kB time=00:00:06.80 bitrate=8953.0kbits/s speed=0.0071x    frame=  431 fps=0.4 q=44.0 size=    7433kB time=00:00:06.82 bitrate=8926.7kbits/s speed=0.00711x    frame=  432 fps=0.4 q=44.0 size=    7433kB time=00:00:06.84 bitrate=8900.6kbits/s speed=0.00712x    frame=  436 fps=0.4 q=44.0 size=    7433kB time=00:00:06.92 bitrate=8797.8kbits/s speed=0.00708x    frame=  437 fps=0.4 q=44.0 size=    7433kB time=00:00:06.94 bitrate=8772.4kbits/s speed=0.00709x    frame=  438 fps=0.4 q=44.0 size=    7433kB time=00:00:06.96 bitrate=8747.2kbits/s speed=0.00709x    frame=  440 fps=0.4 q=44.0 size=    7433kB time=00:00:07.00 bitrate=8697.2kbits/s speed=0.00711x    frame=  441 fps=0.4 q=44.0 size=    7433kB time=00:00:07.02 bitrate=8672.5kbits/s speed=0.00712x    frame=  442 fps=0.4 q=44.0 size=    7433kB time=00:00:07.04 bitrate=8647.8kbits/s speed=0.00711x    frame=  443 fps=0.4 q=44.0 size=    7433kB time=00:00:07.06 bitrate=8623.3kbits/s speed=0.00712x    frame=  444 fps=0.4 q=44.0 size=    7433kB time=00:00:07.08 bitrate=8599.0kbits/s speed=0.00711x    frame=  445 fps=0.4 q=44.0 size=    7433kB time=00:00:07.10 bitrate=8574.7kbits/s speed=0.00708x    frame=  446 fps=0.4 q=44.0 size=    7433kB time=00:00:07.12 bitrate=8550.7kbits/s speed=0.00709x    frame=  447 fps=0.4 q=44.0 size=    7433kB time=00:00:07.14 bitrate=8526.7kbits/s speed=0.0071x    frame=  449 fps=0.4 q=44.0 size=    7433kB time=00:00:07.18 bitrate=8479.2kbits/s speed=0.00707x    frame=  450 fps=0.4 q=44.0 size=    7433kB time=00:00:07.20 bitrate=8455.7kbits/s speed=0.00708x    frame=  451 fps=0.4 q=44.0 size=    7433kB time=00:00:07.22 bitrate=8432.3kbits/s speed=0.00709x    frame=  455 fps=0.4 q=44.0 size=    7433kB time=00:00:07.30 bitrate=8339.9kbits/s speed=0.00705x    frame=  456 fps=0.4 q=44.0 size=    7433kB time=00:00:07.32 bitrate=8317.1kbits/s speed=0.00707x    frame=  457 fps=0.4 q=44.0 size=    7433kB time=00:00:07.34 bitrate=8294.4kbits/s speed=0.00708x    frame=  459 fps=0.4 q=44.0 size=    7433kB time=00:00:07.38 bitrate=8249.5kbits/s speed=0.00708x    frame=  460 fps=0.4 q=44.0 size=    7433kB time=00:00:07.40 bitrate=8227.2kbits/s speed=0.00708x    frame=  461 fps=0.4 q=44.0 size=    7433kB time=00:00:07.42 bitrate=8205.0kbits/s speed=0.00708x    frame=  462 fps=0.4 q=44.0 size=    7433kB time=00:00:07.44 bitrate=8182.9kbits/s speed=0.00709x    frame=  464 fps=0.4 q=44.0 size=    7433kB time=00:00:07.48 bitrate=8139.2kbits/s speed=0.00712x    frame=  465 fps=0.4 q=44.0 size=    7433kB time=00:00:07.50 bitrate=8117.5kbits/s speed=0.00705x    frame=  466 fps=0.4 q=44.0 size=    7433kB time=00:00:07.52 bitrate=8095.9kbits/s speed=0.00706x    frame=  467 fps=0.4 q=44.0 size=    7433kB time=00:00:07.54 bitrate=8074.4kbits/s speed=0.00707x    frame=  469 fps=0.4 q=44.0 size=    7433kB time=00:00:07.58 bitrate=8031.8kbits/s speed=0.00708x    frame=  470 fps=0.4 q=44.0 size=    7433kB time=00:00:07.60 bitrate=8010.7kbits/s speed=0.00709x    frame=  471 fps=0.4 q=44.0 size=    7433kB time=00:00:07.62 bitrate=7989.7kbits/s speed=0.00709x    frame=  472 fps=0.4 q=44.0 size=    7433kB time=00:00:07.64 bitrate=7968.8kbits/s speed=0.0071x    frame=  473 fps=0.4 q=44.0 size=    7433kB time=00:00:07.66 bitrate=7948.0kbits/s speed=0.00705x    frame=  474 fps=0.4 q=44.0 size=    7433kB time=00:00:07.68 bitrate=7927.3kbits/s speed=0.00705x    frame=  475 fps=0.4 q=44.0 size=    7433kB time=00:00:07.70 bitrate=7906.7kbits/s speed=0.00706x    frame=  477 fps=0.4 q=44.0 size=    7433kB time=00:00:07.74 bitrate=7865.8kbits/s speed=0.00708x    frame=  478 fps=0.4 q=44.0 size=    7433kB time=00:00:07.76 bitrate=7845.5kbits/s speed=0.00709x    frame=  479 fps=0.4 q=44.0 size=    7433kB time=00:00:07.78 bitrate=7825.4kbits/s speed=0.00709x    frame=  480 fps=0.4 q=44.0 size=    7433kB time=00:00:07.80 bitrate=7805.3kbits/s speed=0.00704x    frame=  481 fps=0.4 q=44.0 size=    7433kB time=00:00:07.82 bitrate=7785.4kbits/s speed=0.00705x    frame=  482 fps=0.4 q=44.0 size=    7433kB time=00:00:07.84 bitrate=7765.5kbits/s speed=0.00706x    frame=  483 fps=0.4 q=44.0 size=    7433kB time=00:00:07.86 bitrate=7745.7kbits/s speed=0.00706x    frame=  484 fps=0.4 q=44.0 size=    7433kB time=00:00:07.88 bitrate=7726.1kbits/s speed=0.00707x    frame=  485 fps=0.4 q=44.0 size=    7433kB time=00:00:07.90 bitrate=7706.5kbits/s speed=0.00708x    frame=  486 fps=0.4 q=44.0 size=    7433kB time=00:00:07.92 bitrate=7687.1kbits/s speed=0.00708x    frame=  487 fps=0.4 q=44.0 size=    7433kB time=00:00:07.94 bitrate=7667.7kbits/s speed=0.00704x    frame=  488 fps=0.4 q=44.0 size=    7433kB time=00:00:07.96 bitrate=7648.4kbits/s speed=0.00705x    frame=  489 fps=0.4 q=44.0 size=    7433kB time=00:00:07.98 bitrate=7629.3kbits/s speed=0.00706x    frame=  490 fps=0.4 q=44.0 size=    7433kB time=00:00:08.00 bitrate=7610.2kbits/s speed=0.00705x    frame=  491 fps=0.4 q=44.0 size=    7433kB time=00:00:08.02 bitrate=7591.2kbits/s speed=0.00705x    frame=  492 fps=0.4 q=44.0 size=    7433kB time=00:00:08.04 bitrate=7572.4kbits/s speed=0.00706x    frame=  494 fps=0.4 q=44.0 size=    7433kB time=00:00:08.08 bitrate=7534.9kbits/s speed=0.00703x    frame=  495 fps=0.4 q=44.0 size=    7433kB time=00:00:08.10 bitrate=7516.3kbits/s speed=0.00704x    frame=  496 fps=0.4 q=44.0 size=    7433kB time=00:00:08.12 bitrate=7497.8kbits/s speed=0.00705x    frame=  498 fps=0.4 q=44.0 size=    7433kB time=00:00:08.16 bitrate=7461.0kbits/s speed=0.00704x    frame=  499 fps=0.4 q=44.0 size=    7433kB time=00:00:08.18 bitrate=7442.8kbits/s speed=0.00704x    frame=  500 fps=0.4 q=44.0 size=    7433kB time=00:00:08.20 bitrate=7424.6kbits/s speed=0.00706x    frame=  500 fps=0.4 q=-1.0 Lsize=   14523kB time=00:00:09.94 bitrate=11967.9kbits/s speed=0.00701x    
video:14519kB audio:0kB subtitle:0kB other streams:0kB global headers:0kB muxing overhead: 0.031338%
bench: utime=5415.132s
bench: maxrss=4929036kB
[libx264 @ 0x32bd1c0] frame I:2     Avg QP:34.80  size:447940
[libx264 @ 0x32bd1c0] frame P:108   Avg QP:44.70  size: 62173
[libx264 @ 0x32bd1c0] frame B:390   Avg QP:46.74  size: 18604
[libx264 @ 0x32bd1c0] consecutive B-frames:  0.6%  0.4%  3.6% 32.8% 41.0% 21.6%  0.0%  0.0%  0.0%  0.0%  0.0%  0.0%  0.0%  0.0%  0.0%  0.0%  0.0%
[libx264 @ 0x32bd1c0] mb I  I16..4: 15.7% 74.8%  9.4%
[libx264 @ 0x32bd1c0] mb P  I16..4:  1.1%  2.9%  0.0%  P16..4: 35.6% 20.6%  4.8%  0.1%  0.0%    skip:34.9%
[libx264 @ 0x32bd1c0] mb B  I16..4:  0.0%  0.1%  0.0%  B16..8: 39.0%  6.3%  0.3%  direct: 0.3%  skip:54.0%  L0:45.9% L1:53.2% BI: 0.9%
[libx264 @ 0x32bd1c0] final ratefactor: 35.62
[libx264 @ 0x32bd1c0] 8x8 transform intra:73.0% inter:86.2%
[libx264 @ 0x32bd1c0] direct mvs  spatial:99.2% temporal:0.8%
[libx264 @ 0x32bd1c0] coded y,uvDC,uvAC intra: 41.8% 50.2% 18.7% inter: 1.9% 3.4% 0.1%
[libx264 @ 0x32bd1c0] i16 v,h,dc,p: 30% 23%  3% 44%
[libx264 @ 0x32bd1c0] i8 v,h,dc,ddl,ddr,vr,hd,vl,hu:  4%  2%  1% 13% 18% 17% 18% 14% 12%
[libx264 @ 0x32bd1c0] i4 v,h,dc,ddl,ddr,vr,hd,vl,hu:  5%  3%  4% 14% 17% 14% 15% 12% 16%
[libx264 @ 0x32bd1c0] i8c dc,h,v,p: 44% 18% 16% 21%
[libx264 @ 0x32bd1c0] Weighted P-Frames: Y:0.0% UV:0.0%
[libx264 @ 0x32bd1c0] ref P L0: 56.6%  7.9% 13.0%  4.0%  3.4%  3.1%  2.9%  1.3%  1.1%  1.0%  1.0%  1.0%  1.1%  1.1%  1.1%  0.5%
[libx264 @ 0x32bd1c0] ref B L0: 95.3%  2.2%  0.9%  0.3%  0.2%  0.2%  0.2%  0.1%  0.1%  0.1%  0.1%  0.1%  0.1%  0.1%  0.1%
[libx264 @ 0x32bd1c0] ref B L1: 99.1%  0.9%
[libx264 @ 0x32bd1c0] kb/s:11893.02
